<?xml version="1.0" encoding="utf-8"?>
<!-- Generator: Adobe Illustrator 23.0.1, SVG Export Plug-In . SVG Version: 6.00 Build 0)  -->
<svg version="1.1" id="Layer_1" xmlns="http://www.w3.org/2000/svg" xmlns:xlink="http://www.w3.org/1999/xlink" x="0px" y="0px"
	 viewBox="0 0 512 512" style="enable-background:new 0 0 512 512;" xml:space="preserve">
<style type="text/css">
	.st0{fill-rule:evenodd;clip-rule:evenodd;fill:#1B1B1B;}
</style>
<path class="st0" d="M256,456c-110.3,0-200-89.7-200-200S145.7,56,256,56s200,89.7,200,200S366.3,456,256,456z M256,69.3
	C153.1,69.3,69.3,153.1,69.3,256c0,102.9,83.7,186.7,186.7,186.7S442.7,358.9,442.7,256C442.7,153.1,358.9,69.3,256,69.3z
	 M327.4,327.4c-1.3,1.3-3,2-4.7,2c-1.7,0-3.4-0.7-4.7-2l-62-62l-62,62c-1.3,1.3-3,2-4.7,2c-1.7,0-3.4-0.7-4.7-2
	c-2.6-2.6-2.6-6.8,0-9.4l62-62l-62-62c-2.6-2.6-2.6-6.8,0-9.4c2.6-2.6,6.8-2.6,9.4,0l62,62l62-62c2.6-2.6,6.8-2.6,9.4,0
	c2.6,2.6,2.6,6.8,0,9.4l-62,62l62,62C330,320.6,330,324.8,327.4,327.4z"/>
</svg>
