<svg width="74" height="48" viewBox="0 0 74 48" fill="none" xmlns="http://www.w3.org/2000/svg">
<g clip-path="url(#clip0_6650_5567)">
<path d="M73.5926 0H-60.2744V48H73.5926V0Z" fill="#09683A"/>
<path d="M14.3664 40.246L7.41504 22.5166H12.2988L16.6021 34.0333L14.3664 40.246ZM14.2603 40.1921L20.6233 22.5166H25.509L18.7038 40.1921H14.2603Z" fill="white"/>
<path d="M66.4804 32.8475C66.4804 37.2748 63.4201 40.6038 58.6744 40.6038C53.9287 40.6038 50.9004 37.2748 50.9004 32.8475V18.0557H55.4419V22.517H66.2763V26.8764H55.4419V32.9853C55.4419 34.5989 56.4427 36.2124 58.6744 36.2124C60.9442 36.2124 61.9429 34.5989 61.9429 32.9853V31.3717H66.4824L66.4804 32.8475Z" fill="white"/>
<path d="M30.5653 22.5186H26.0234V40.194H30.5653V22.5186Z" fill="white"/>
<path d="M25.9893 18.0563V21.1696H30.5652V18.0563C30.5652 18.0323 30.5652 18.0083 30.5652 17.9844H25.9933C25.9913 18.0083 25.9893 18.0323 25.9893 18.0563Z" fill="white"/>
<path d="M38.447 33.1227H49.6277C50.3843 26.0513 45.9468 22.0713 40.7528 22.0713C35.7309 22.0713 31.6357 26.265 31.6357 31.4053C31.6357 36.3678 35.5428 40.4437 40.4065 40.6295V39.2415H41.5034V40.6115C45.4785 40.3439 48.3086 37.9575 49.2834 34.5645H44.5017C43.6771 35.9025 42.1979 36.4857 40.6827 36.4857C38.1388 36.4857 36.0392 34.3229 36.0392 31.4053C36.0392 28.4537 38.1388 26.1891 40.6827 26.1891C42.7123 26.1891 44.4677 27.3574 45.0861 29.3464H38.447V33.1227Z" fill="white"/>
<path d="M12.4628 9.74372C12.7301 10.0183 12.9399 10.3431 13.0801 10.6993C13.2203 11.0555 13.2881 11.436 13.2795 11.8186V17.1187H11.7403V11.7827C11.7403 10.9299 11.2159 10.4127 10.3392 10.4127C9.46246 10.4127 8.95206 10.9299 8.95206 11.7827V17.1187H7.41283V11.8186C7.40425 11.436 7.47203 11.0555 7.61223 10.6993C7.75244 10.3431 7.96226 10.0183 8.22948 9.74372C8.80719 9.21692 9.56152 8.9248 10.3442 8.9248C11.1268 8.9248 11.8811 9.21692 12.4588 9.74372H12.4628Z" fill="white"/>
<path d="M21.7043 13.0875C21.7043 15.414 20.0389 17.2593 17.7531 17.2593C15.4673 17.2593 13.792 15.414 13.792 13.0875C13.792 10.761 15.4593 8.92578 17.7531 8.92578C20.047 8.92578 21.7043 10.771 21.7043 13.0875ZM20.155 13.0875C20.155 11.5998 19.0822 10.3676 17.7531 10.3676C16.4241 10.3676 15.3512 11.5998 15.3512 13.0875C15.3512 14.5753 16.4241 15.8174 17.7531 15.8174C19.0822 15.8174 20.155 14.5793 20.155 13.0875Z" fill="white"/>
<path d="M27.2743 9.74372C27.5412 10.0184 27.7506 10.3433 27.8905 10.6995C28.0303 11.0558 28.0978 11.4361 28.089 11.8186V17.1187H26.5517V11.7827C26.5517 10.9299 26.0273 10.4127 25.1506 10.4127C24.2739 10.4127 23.7655 10.9299 23.7655 11.7827V17.1187H22.2263V11.8186C22.2177 11.436 22.2855 11.0555 22.4257 10.6993C22.5659 10.3431 22.7757 10.0183 23.0429 9.74372C23.6207 9.21692 24.375 8.9248 25.1576 8.9248C25.9403 8.9248 26.6946 9.21692 27.2723 9.74372H27.2743Z" fill="white"/>
<path d="M28.6025 13.0868C28.6025 10.7463 30.3259 8.91309 32.5297 8.91309C34.3311 8.91309 35.6862 9.92756 36.1986 11.5771H34.5453C34.3655 11.196 34.0802 10.8741 33.7231 10.6494C33.3659 10.4247 32.9519 10.3066 32.5297 10.309C31.1886 10.309 30.1398 11.5771 30.1398 13.0868C30.1398 14.5966 31.1886 15.8826 32.5297 15.8826C33.0475 15.8819 33.5495 15.7045 33.9523 15.3797C34.355 15.0549 34.6342 14.6023 34.7434 14.0973H32.7298V12.6794H36.4328C36.5268 15.4912 34.8315 17.2725 32.5297 17.2725C30.3279 17.2586 28.6025 15.4253 28.6025 13.0868Z" fill="white"/>
<path d="M45.3121 10.539H39.4395V9.12109H45.3121V10.539ZM43.1444 17.1291H41.6072V11.15H43.1384L43.1444 17.1291Z" fill="white"/>
<path d="M47.2113 9.12109V17.1191H45.6621V9.12109H47.2113ZM51.6288 17.1191H50.0896V13.7422H47.8178V12.3263H50.0896V9.12109H51.6288V17.1191Z" fill="white"/>
<path d="M60.089 13.0875C60.089 15.414 58.4217 17.2593 56.1379 17.2593C53.8541 17.2593 52.1768 15.414 52.1768 13.0875C52.1768 10.761 53.8421 8.92578 56.1379 8.92578C58.4337 8.92578 60.089 10.771 60.089 13.0875ZM58.5378 13.0875C58.5378 11.5998 57.467 10.3676 56.1359 10.3676C54.8048 10.3676 53.734 11.5998 53.734 13.0875C53.734 14.5753 54.8068 15.8174 56.1359 15.8174C57.465 15.8174 58.5378 14.5793 58.5378 13.0875Z" fill="white"/>
<path d="M65.658 9.74372C65.9252 10.0183 66.1351 10.3431 66.2753 10.6993C66.4155 11.0555 66.4832 11.436 66.4747 11.8186V17.1187H64.9355V11.7827C64.9355 10.9299 64.413 10.4127 63.5343 10.4127C62.6556 10.4127 62.1532 10.9299 62.1532 11.7827V17.1187H60.616V11.8186C60.6072 11.4361 60.6746 11.0558 60.8145 10.6995C60.9544 10.3433 61.1638 10.0184 61.4307 9.74372C62.0084 9.21692 62.7627 8.9248 63.5453 8.9248C64.328 8.9248 65.0823 9.21692 65.66 9.74372H65.658Z" fill="white"/>
<path d="M17.2547 7.56348H18.0173L18.9341 8.55L18.6158 8.78764L17.653 7.97686H17.619L16.6562 8.78764L16.3379 8.55799L17.2547 7.56348Z" fill="white"/>
<path d="M55.7479 7.56348H56.5105L57.4273 8.55L57.1091 8.77965L56.1482 7.96887H56.1142L55.1474 8.78764L54.8291 8.55799L55.7479 7.56348Z" fill="white"/>
<path d="M45.3502 21.3546V21.4904H42.558L40.8907 20.0665L39.2213 21.4904H36.4932V21.3126L39.8819 18.417H41.9075L45.3502 21.3546Z" fill="white"/>
</g>
<defs>
<clipPath id="clip0_6650_5567">
<rect width="72.96" height="48" fill="white" transform="translate(0.408203)"/>
</clipPath>
</defs>
</svg>
